# Blender 4.0.2
# www.blender.org
mtllib janitor.mtl
o Body
v 0.225030 1.910909 -0.134507
v 0.268067 1.352079 -0.144433
v 0.225030 1.912436 0.143675
v 0.268067 1.355132 0.199381
v 0.199134 2.256366 -0.159449
v 0.199134 2.222786 0.128923
v 0.101802 2.491991 -0.130279
v 0.119459 2.491328 0.133502
v 0.268067 1.259223 -0.172773
v 0.268067 1.264042 0.245238
v 0.304709 1.307713 0.267896
v 0.302355 1.298213 -0.213389
v 0.000000 1.364463 -0.145998
v 0.000000 1.913199 0.143675
v 0.000000 1.365371 0.199567
v 0.000000 1.911673 -0.134507
v 0.000000 2.230788 0.128334
v 0.000000 2.264368 -0.160038
v 0.000000 2.487866 0.133671
v 0.000000 2.487411 -0.130279
v 0.000000 1.263562 -0.173579
v 0.000000 1.270577 0.245376
v 0.000000 1.302808 -0.213138
v 0.000000 1.311806 0.269816
v -0.225030 1.910909 -0.134507
v -0.268067 1.352079 -0.144433
v -0.225030 1.912436 0.143675
v -0.268067 1.355132 0.199381
v -0.199134 2.256366 -0.159449
v -0.199134 2.222786 0.128923
v -0.101802 2.491991 -0.130279
v -0.119459 2.491328 0.133502
v -0.268067 1.259223 -0.172773
v -0.268067 1.264042 0.245238
v -0.304709 1.307713 0.267896
v -0.302355 1.298213 -0.213389
vn 0.9970 0.0769 -0.0006
vn 0.0037 0.0195 -0.9998
vn 0.9969 0.0790 0.0045
vn -0.0004 0.0479 0.9989
vn 0.9433 0.3318 -0.0096
vn -0.0016 -0.0191 0.9998
vn -0.0203 -0.9997 0.0141
vn 0.7598 -0.6501 0.0084
vn -0.0105 -0.7134 -0.7007
vn 0.0243 0.7652 -0.6434
vn 0.8190 0.5736 -0.0111
vn 0.0224 0.8112 0.5844
vn -0.0363 0.9993 0.0016
vn -0.0001 -0.0721 -0.9974
vn 0.0034 0.1281 -0.9918
vn -0.0058 -0.4832 0.8755
vn 0.0026 0.1006 0.9949
vn -0.9970 0.0769 -0.0006
vn -0.0037 0.0195 -0.9998
vn -0.9969 0.0790 0.0045
vn 0.0004 0.0479 0.9989
vn -0.9433 0.3318 -0.0096
vn 0.0016 -0.0191 0.9998
vn 0.0203 -0.9997 0.0141
vn -0.7598 -0.6501 0.0084
vn 0.0105 -0.7134 -0.7007
vn -0.0243 0.7652 -0.6434
vn -0.8190 0.5736 -0.0111
vn -0.0224 0.8112 0.5844
vn 0.0363 0.9993 0.0016
vn 0.0001 -0.0721 -0.9974
vn -0.0034 0.1281 -0.9918
vn 0.0058 -0.4832 0.8755
vn -0.0026 0.1006 0.9949
vt 0.375000 0.500000
vt 0.625000 0.500000
vt 0.625000 0.750000
vt 0.375000 0.750000
vt 0.375000 0.375000
vt 0.625000 0.375000
vt 0.625000 0.875000
vt 0.625000 0.875000
vt 0.625000 0.875000
vt 0.250000 0.500000
vt 0.250000 0.750000
vt 0.375000 0.875000
vt 0.375000 0.875000
vt 0.750000 0.500000
vt 0.750000 0.750000
vt 0.625000 0.375000
vt 0.375000 0.875000
s 0
usemtl blue
f 2/1/1 1/2/1 3/3/1 4/4/1
f 13/5/2 16/6/2 1/2/2 2/1/2
f 3/3/3 1/2/3 5/2/3 6/3/3
f 14/7/4 3/3/4 6/3/4 17/8/4
f 6/3/5 5/2/5 7/2/5 8/3/5
f 17/8/6 6/3/6 8/3/6 19/9/6
f 7/2/13 20/14/13 19/15/13 8/3/13
f 1/2/14 16/6/14 18/16/14 5/2/14
f 5/2/15 18/16/15 20/16/15 7/2/15
f 4/4/17 3/3/17 14/7/17 15/12/17
f 26/1/18 28/4/18 27/3/18 25/2/18
f 13/5/19 26/1/19 25/2/19 16/6/19
f 27/3/20 30/3/20 29/2/20 25/2/20
f 14/7/21 17/8/21 30/3/21 27/3/21
f 30/3/22 32/3/22 31/2/22 29/2/22
f 17/8/23 19/9/23 32/3/23 30/3/23
f 31/2/30 32/3/30 19/15/30 20/14/30
f 25/2/31 29/2/31 18/16/31 16/6/31
f 29/2/32 31/2/32 20/16/32 18/16/32
f 28/4/34 15/12/34 14/7/34 27/3/34
usemtl dark_blue
f 21/10/7 9/1/7 10/4/7 22/11/7
f 12/1/8 11/4/8 10/4/8 9/1/8
f 23/5/9 12/1/9 9/1/9 21/5/9
f 13/5/10 2/1/10 12/1/10 23/5/10
f 2/1/11 4/4/11 11/4/11 12/1/11
f 4/4/12 15/12/12 24/13/12 11/4/12
f 11/4/16 24/13/16 22/17/16 10/4/16
f 21/10/24 22/11/24 34/4/24 33/1/24
f 36/1/25 33/1/25 34/4/25 35/4/25
f 23/5/26 21/5/26 33/1/26 36/1/26
f 13/5/27 23/5/27 36/1/27 26/1/27
f 26/1/28 36/1/28 35/4/28 28/4/28
f 28/4/29 35/4/29 24/13/29 15/12/29
f 35/4/33 34/4/33 22/17/33 24/13/33
o Legs
v 0.262629 1.286384 -0.120520
v 0.256522 1.027448 -0.079379
v 0.262629 1.296246 0.141936
v 0.256521 1.018149 0.141936
v -0.021242 1.286384 -0.120520
v 0.035992 0.957246 -0.079379
v -0.021242 1.296246 0.141936
v 0.035992 0.947947 0.141936
v 0.386526 0.420121 -0.035778
v 0.386526 0.406596 0.094954
v 0.209440 0.338001 0.094954
v 0.209440 0.351527 -0.035778
v 0.256522 1.027448 -0.079379
v 0.256521 1.018149 0.141936
v 0.035992 0.947947 0.141936
v 0.035992 0.957246 -0.079379
v 0.395366 0.002713 -0.043089
v 0.395366 0.000684 0.049176
v 0.453387 0.000521 0.049176
v 0.453387 0.002550 -0.043089
v 0.435116 0.098542 -0.043089
v 0.435116 0.096513 0.049176
v 0.349108 0.091090 0.049176
v 0.349108 0.093119 -0.043089
v 0.453387 0.000521 0.049176
v 0.395366 0.000684 0.049176
v 0.453387 0.002550 -0.043089
v 0.395366 0.002713 -0.043089
v 0.359004 0.054156 0.049176
v 0.359004 0.056185 -0.043089
v 0.455506 0.067646 -0.043089
v 0.455506 0.065617 0.049176
v 0.453387 0.002550 -0.043089
v 0.453387 0.000521 0.049176
v 0.395366 0.000684 0.049176
v 0.395366 0.002713 -0.043089
v 0.553713 0.002586 -0.043158
v 0.553713 0.000557 0.049107
v 0.553713 0.000557 0.049107
v 0.553713 0.002586 -0.043158
v 0.546621 0.048763 -0.043158
v 0.546621 0.046734 0.049107
v 0.553713 0.002586 -0.043158
v 0.553713 0.000557 0.049107
v -0.262629 1.286384 -0.120520
v -0.256521 1.027448 -0.079379
v -0.262629 1.296246 0.141936
v -0.256521 1.018149 0.141936
v 0.021242 1.286384 -0.120520
v -0.035992 0.957246 -0.079379
v 0.021242 1.296246 0.141936
v -0.035992 0.947947 0.141936
v -0.386526 0.420121 -0.035778
v -0.386526 0.406596 0.094954
v -0.209440 0.338001 0.094954
v -0.209440 0.351527 -0.035778
v -0.256521 1.027448 -0.079379
v -0.256521 1.018149 0.141936
v -0.035992 0.947947 0.141936
v -0.035992 0.957246 -0.079379
v -0.395366 0.002713 -0.043089
v -0.395366 0.000684 0.049176
v -0.453387 0.000522 0.049176
v -0.453387 0.002550 -0.043089
v -0.435116 0.098542 -0.043089
v -0.435116 0.096513 0.049176
v -0.349108 0.091090 0.049176
v -0.349108 0.093119 -0.043089
v -0.453387 0.000522 0.049176
v -0.395366 0.000684 0.049176
v -0.453387 0.002550 -0.043089
v -0.395366 0.002713 -0.043089
v -0.359004 0.054156 0.049176
v -0.359004 0.056185 -0.043089
v -0.455506 0.067646 -0.043089
v -0.455506 0.065617 0.049176
v -0.453387 0.002550 -0.043089
v -0.453387 0.000522 0.049176
v -0.395366 0.000684 0.049176
v -0.395366 0.002713 -0.043089
v -0.553713 0.002586 -0.043158
v -0.553713 0.000557 0.049107
v -0.553713 0.000557 0.049107
v -0.553713 0.002586 -0.043158
v -0.546621 0.048763 -0.043158
v -0.546621 0.046734 0.049107
v -0.553713 0.002586 -0.043158
v -0.553713 0.000557 0.049107
vn 0.9997 -0.0227 -0.0000
vn -0.0000 -0.0000 1.0000
vn -0.9860 -0.1666 0.0002
vn 0.0191 -0.1369 -0.9904
vn -0.0000 0.9993 -0.0376
vn 0.0246 -0.0706 0.9972
vn -0.0000 -1.0000 -0.0000
vn -0.9615 -0.2743 -0.0178
vn 0.9779 0.2086 0.0135
vn 0.0230 -0.0660 -0.9976
vn -0.9659 -0.2588 -0.0057
vn 0.0417 -0.1483 0.9881
vn -0.0065 0.0231 -0.9997
vn 0.9884 0.1512 0.0105
vn -0.8762 -0.4808 -0.0335
vn -0.0028 -0.9998 -0.0220
vn -0.0000 -0.0000 -1.0000
vn 0.0007 -0.0000 1.0000
vn -0.8269 -0.5623 -0.0124
vn 0.8346 0.5508 0.0121
vn 0.9884 0.1518 0.0033
vn 0.0003 -0.9998 -0.0220
vn -0.0007 -0.0000 -1.0000
vn 0.2029 0.9790 0.0215
vn -0.9997 -0.0227 -0.0000
vn 0.9860 -0.1666 0.0002
vn -0.0191 -0.1369 -0.9904
vn -0.0246 -0.0706 0.9972
vn 0.9615 -0.2743 -0.0178
vn -0.9779 0.2086 0.0135
vn -0.0230 -0.0660 -0.9976
vn 0.9659 -0.2588 -0.0057
vn -0.0417 -0.1483 0.9881
vn 0.0065 0.0231 -0.9997
vn -0.9884 0.1512 0.0105
vn 0.8762 -0.4808 -0.0335
vn 0.0028 -0.9998 -0.0220
vn -0.0007 -0.0000 1.0000
vn 0.8269 -0.5623 -0.0124
vn -0.8346 0.5508 0.0121
vn -0.9884 0.1518 0.0033
vn -0.0003 -0.9998 -0.0220
vn 0.0007 -0.0000 -1.0000
vn -0.2029 0.9790 0.0215
vt 0.375000 0.000000
vt 0.625000 0.000000
vt 0.625000 0.250000
vt 0.375000 0.250000
vt 0.625000 0.500000
vt 0.375000 0.500000
vt 0.625000 0.750000
vt 0.375000 0.750000
vt 0.625000 1.000000
vt 0.375000 1.000000
vt 0.125000 0.500000
vt 0.125000 0.750000
vt 0.875000 0.500000
vt 0.875000 0.750000
s 0
usemtl blue
f 37/18/35 39/21/35 40/20/35 38/19/35
f 39/21/36 43/23/36 44/22/36 40/20/36
f 43/23/37 41/25/37 42/24/37 44/22/37
f 41/25/38 37/27/38 38/26/38 42/24/38
f 39/28/39 37/29/39 41/25/39 43/23/39
f 44/22/40 47/22/40 46/20/40 40/20/40
f 40/20/41 50/20/41 51/22/41 44/22/41
f 42/24/42 48/24/42 47/22/42 44/22/42
f 40/20/43 46/20/43 45/19/43 38/19/43
f 38/26/44 45/26/44 48/24/44 42/24/44
f 47/22/46 59/22/46 58/20/46 46/20/46
f 45/26/47 57/26/47 60/24/47 48/24/47
f 44/22/41 51/22/41 52/24/41 42/24/41
f 46/20/48 58/20/48 57/19/48 45/19/48
f 48/24/49 60/24/49 59/22/49 47/22/49
f 38/19/41 49/19/41 50/20/41 40/20/41
f 42/24/41 52/24/41 49/26/41 38/26/41
f 81/18/59 82/19/59 84/20/59 83/21/59
f 83/21/36 84/20/36 88/22/36 87/23/36
f 87/23/60 88/22/60 86/24/60 85/25/60
f 85/25/61 86/24/61 82/26/61 81/27/61
f 83/28/39 87/23/39 85/25/39 81/29/39
f 88/22/62 84/20/62 90/20/62 91/22/62
f 84/20/41 88/22/41 95/22/41 94/20/41
f 86/24/63 88/22/63 91/22/63 92/24/63
f 84/20/64 82/19/64 89/19/64 90/20/64
f 82/26/65 86/24/65 92/24/65 89/26/65
f 91/22/67 90/20/67 102/20/67 103/22/67
f 89/26/68 92/24/68 104/24/68 101/26/68
f 88/22/41 86/24/41 96/24/41 95/22/41
f 90/20/69 89/19/69 101/19/69 102/20/69
f 92/24/70 91/22/70 103/22/70 104/24/70
f 82/19/41 84/20/41 94/20/41 93/19/41
f 86/24/41 82/26/41 93/26/41 96/24/41
usemtl brown
f 60/24/45 66/24/45 65/22/45 59/22/45
f 71/22/50 72/24/50 69/31/50 70/30/50
f 65/22/36 54/22/36 55/20/36 68/20/36
f 67/26/51 56/26/51 53/24/51 66/24/51
f 55/20/52 74/20/52 78/20/52 68/20/52
f 66/24/53 53/24/53 54/22/53 65/22/53
f 56/26/41 63/26/41 64/24/41 53/24/41
f 54/22/41 62/22/41 61/20/41 55/20/41
f 53/24/41 64/24/41 62/22/41 54/22/41
f 63/26/41 76/26/41 79/26/41 69/26/41
f 64/24/41 72/24/41 71/22/41 62/22/41
f 56/26/41 73/26/41 76/26/41 63/26/41
f 63/26/41 69/26/41 72/24/41 64/24/41
f 62/22/41 71/22/41 70/20/41 61/20/41
f 58/20/54 68/20/54 67/19/54 57/19/54
f 57/26/51 67/26/51 66/24/51 60/24/51
f 59/22/36 65/22/36 68/20/36 58/20/36
f 78/20/55 74/20/55 73/19/55 77/19/55
f 74/20/41 75/20/41 76/19/41 73/19/41
f 75/20/41 80/20/41 79/19/41 76/19/41
f 69/31/56 79/31/56 80/30/56 70/30/56
f 67/26/57 77/26/57 73/26/57 56/26/57
f 68/20/58 78/20/58 77/19/58 67/19/58
f 61/20/41 75/20/41 74/20/41 55/20/41
f 70/20/41 80/20/41 75/20/41 61/20/41
f 104/24/66 103/22/66 109/22/66 110/24/66
f 115/22/71 114/30/71 113/31/71 116/24/71
f 109/22/36 112/20/36 99/20/36 98/22/36
f 111/26/51 110/24/51 97/24/51 100/26/51
f 99/20/72 112/20/72 122/20/72 118/20/72
f 110/24/73 109/22/73 98/22/73 97/24/73
f 100/26/41 97/24/41 108/24/41 107/26/41
f 98/22/41 99/20/41 105/20/41 106/22/41
f 97/24/41 98/22/41 106/22/41 108/24/41
f 107/26/41 113/26/41 123/26/41 120/26/41
f 108/24/41 106/22/41 115/22/41 116/24/41
f 100/26/41 107/26/41 120/26/41 117/26/41
f 107/26/41 108/24/41 116/24/41 113/26/41
f 106/22/41 105/20/41 114/20/41 115/22/41
f 102/20/74 101/19/74 111/19/74 112/20/74
f 101/26/51 104/24/51 110/24/51 111/26/51
f 103/22/36 102/20/36 112/20/36 109/22/36
f 122/20/75 121/19/75 117/19/75 118/20/75
f 118/20/41 117/19/41 120/19/41 119/20/41
f 119/20/41 120/19/41 123/19/41 124/20/41
f 113/31/76 114/30/76 124/30/76 123/31/76
f 111/26/77 100/26/77 117/26/77 121/26/77
f 112/20/78 111/19/78 121/19/78 122/20/78
f 105/20/41 99/20/41 118/20/41 119/20/41
f 114/20/41 105/20/41 119/20/41 124/20/41
o Head
v -0.155291 2.565086 0.162336
v -0.155291 2.889758 0.162336
v -0.155291 2.565086 -0.162336
v -0.155291 2.889758 -0.162336
v 0.169380 2.565086 0.162336
v 0.169380 2.889758 0.162336
v 0.169380 2.565086 -0.162336
v 0.169380 2.889758 -0.162336
v -0.155291 3.025649 0.162336
v -0.155291 3.025649 -0.162336
v 0.169380 3.025649 0.162336
v 0.169380 3.025649 -0.162336
v -0.155291 2.957704 0.162336
v -0.155291 2.957704 -0.162336
v 0.169380 2.957703 0.162336
v 0.169380 2.957703 -0.162336
v -0.155291 2.889758 0.380895
v 0.169380 2.889758 0.380895
v -0.155291 2.957704 0.380895
v 0.169380 2.957703 0.380895
vn 1.0000 -0.0000 -0.0000
vn -0.0000 -0.0000 1.0000
vn -1.0000 -0.0000 -0.0000
vn -0.0000 -0.0000 -1.0000
vn -0.0000 1.0000 -0.0000
vn -0.0000 -1.0000 -0.0000
vt 0.375000 0.000000
vt 0.625000 0.000000
vt 0.625000 0.250000
vt 0.375000 0.250000
vt 0.625000 0.500000
vt 0.375000 0.500000
vt 0.625000 0.750000
vt 0.375000 0.750000
vt 0.625000 1.000000
vt 0.375000 1.000000
vt 0.125000 0.500000
vt 0.125000 0.750000
vt 0.875000 0.500000
vt 0.875000 0.750000
vt 0.625000 0.750000
s 0
usemtl purple
f 125/32/79 127/35/79 128/34/79 126/33/79
f 127/35/80 131/37/80 132/36/80 128/34/80
f 131/37/81 129/39/81 130/38/81 132/36/81
f 129/39/82 125/41/82 126/40/82 130/38/82
f 127/42/83 125/43/83 129/39/83 131/37/83
usemtl dark_blue
f 138/34/79 134/34/79 133/33/79 137/33/79
f 136/36/84 135/38/84 133/45/84 134/44/84
f 137/40/82 133/40/82 135/38/82 139/46/82
f 140/36/80 136/36/80 134/34/80 138/34/80
f 139/46/81 135/38/81 136/36/81 140/36/81
f 130/38/81 139/46/81 140/36/81 132/36/81
f 132/36/80 140/36/80 138/34/80 128/34/80
f 139/46/84 144/46/84 143/40/84 137/40/84
f 128/34/79 138/34/79 137/33/79 126/33/79
f 141/40/82 143/40/82 144/46/82 142/38/82
f 126/40/83 141/40/83 142/38/83 130/38/83
f 130/38/81 142/38/81 144/46/81 139/46/81
f 137/33/79 143/33/79 141/33/79 126/33/79
o Broom_End
v 0.917973 0.235490 0.017472
v 1.161791 0.046107 0.048900
v 0.922701 0.122935 0.156865
v 1.084059 0.710297 0.077281
v 1.135686 0.374512 0.076844
v 1.051493 0.200661 0.076276
v 1.067102 0.082347 0.101877
v 1.104111 0.545337 0.055203
v 0.991891 0.102208 0.122181
v 0.977405 0.220570 0.043865
v 1.086455 0.630019 0.053557
v 0.936174 0.231375 0.092809
v 0.963694 0.110498 -0.009142
v 1.076320 0.672480 0.073125
v 1.035589 0.091244 0.021662
v 1.093731 0.587814 0.075649
v 1.013346 0.210666 0.071295
v 1.124844 0.181817 0.107886
v 1.123027 0.460898 0.055506
v 1.145143 0.062099 0.080892
v 1.091860 0.190324 0.049531
v 1.107205 0.071939 0.052330
v 1.111599 0.503175 0.078848
v 1.000666 0.213569 0.023342
v 0.693475 0.170257 0.015658
v 0.874158 0.443842 0.058281
v 0.860913 0.251184 0.062749
v 0.785774 0.156927 0.081908
v 0.988395 0.576013 0.046989
v 0.857562 0.137818 0.112646
v 0.938718 0.230826 0.041119
v 1.045548 0.640863 0.050653
v 0.973040 0.221602 0.095426
v 0.903235 0.126526 -0.013434
v 1.072616 0.673462 0.072862
v 0.827850 0.146315 0.006917
v 1.015564 0.608536 0.070100
v 0.899307 0.240897 0.063200
v 0.784373 0.272076 0.083719
v 0.930455 0.511949 0.041837
v 0.711453 0.177070 0.050107
v 0.824635 0.261165 0.030562
v 0.752699 0.165918 0.027166
v 0.958045 0.543882 0.067949
vn -0.7621 -0.0610 -0.6446
vn 0.9286 -0.2941 -0.2264
vn 0.7040 -0.0356 0.7093
vn 0.8708 -0.0958 -0.4822
vn 0.9381 -0.1864 -0.2921
vn 0.8281 -0.1212 0.5474
vn -0.1016 0.1618 -0.9816
vn 0.0541 0.0776 0.9955
vn -0.0174 0.0527 0.9985
vn 0.1219 0.0472 -0.9914
vn 0.4156 0.0244 0.9092
vn 0.7688 -0.0261 -0.6390
vn 0.0119 0.0061 -0.9999
vn -0.1384 -0.0059 0.9904
vn 0.7104 -0.4513 -0.5400
vn -0.9136 0.1943 -0.3572
vn -0.7166 0.3410 0.6085
vn -0.7324 0.3292 -0.5960
vn -0.8600 0.2903 -0.4197
vn -0.8441 0.3221 0.4287
vn 0.2967 0.0562 -0.9533
vn -0.1397 0.1290 0.9818
vn -0.0909 0.0722 0.9932
vn 0.0493 0.0664 -0.9966
vn -0.4654 0.2579 0.8467
vn -0.5896 0.3340 -0.7354
vn 0.1248 -0.0238 -0.9919
vn -0.0147 -0.0387 0.9991
vt 0.430000 0.310000
vt 0.340000 0.250000
vt 0.370000 0.250000
vt 0.490000 0.250000
vt 0.280000 0.040000
vt 0.265000 0.250000
vt 0.250000 0.250000
vt 0.250000 0.010000
vt 0.400000 0.160000
vt 0.325000 0.250000
vt 0.310000 0.250000
vt 0.370000 0.130000
vt 0.340000 0.400000
vt 0.295000 0.250000
vt 0.370000 0.370000
vt 0.280000 0.460000
vt 0.280000 0.250000
vt 0.310000 0.430000
vt 0.340000 0.100000
vt 0.310000 0.070000
vt 0.250000 0.490000
vt 0.430000 0.190000
vt 0.400000 0.340000
s 0
usemtl yellow
f 162/47/85 163/48/85 149/49/85 146/50/85
f 156/51/86 158/52/86 148/53/86 147/54/86
f 165/55/87 167/56/87 152/57/87 151/58/87
f 159/59/88 160/60/88 152/57/88 150/61/88
f 157/62/89 158/52/89 155/63/89 154/64/89
f 161/65/90 160/60/90 155/63/90 153/66/90
f 145/67/91 148/53/91 158/52/91 157/62/91
f 153/66/92 155/63/92 158/52/92 156/51/92
f 151/58/93 152/57/93 160/60/93 161/65/93
f 154/64/94 155/63/94 160/60/94 159/59/94
f 146/50/95 149/49/95 163/48/95 164/68/95
f 166/69/96 167/56/96 163/48/96 162/47/96
f 150/61/97 152/57/97 167/56/97 166/69/97
f 164/68/98 163/48/98 167/56/98 165/55/98
f 183/47/99 169/50/99 170/49/99 184/48/99
f 177/51/100 147/54/100 148/53/100 179/52/100
f 186/55/101 172/58/101 173/57/101 188/56/101
f 180/59/102 171/61/102 173/57/102 181/60/102
f 178/62/103 175/64/103 176/63/103 179/52/103
f 182/65/104 174/66/104 176/63/104 181/60/104
f 168/67/105 178/62/105 179/52/105 148/53/105
f 174/66/106 177/51/106 179/52/106 176/63/106
f 172/58/107 182/65/107 181/60/107 173/57/107
f 175/64/108 180/59/108 181/60/108 176/63/108
f 169/50/109 185/68/109 184/48/109 170/49/109
f 187/69/110 183/47/110 184/48/110 188/56/110
f 171/61/111 187/69/111 188/56/111 173/57/111
f 185/68/112 186/55/112 188/56/112 184/48/112
o Neck
v 0.057217 2.580185 -0.057217
v 0.057217 2.465752 -0.057217
v 0.057217 2.580185 0.057217
v 0.057217 2.465752 0.057217
v -0.057217 2.580185 -0.057217
v -0.057217 2.465752 -0.057217
v -0.057217 2.580185 0.057217
v -0.057217 2.465752 0.057217
vn 1.0000 -0.0000 -0.0000
vn -0.0000 -0.0000 1.0000
vn -1.0000 -0.0000 -0.0000
vn -0.0000 -0.0000 -1.0000
vn -0.0000 1.0000 -0.0000
vn -0.0000 -1.0000 -0.0000
vt 0.375000 0.000000
vt 0.625000 0.000000
vt 0.625000 0.250000
vt 0.375000 0.250000
vt 0.625000 0.500000
vt 0.375000 0.500000
vt 0.625000 0.750000
vt 0.375000 0.750000
vt 0.625000 1.000000
vt 0.375000 1.000000
vt 0.125000 0.500000
vt 0.125000 0.750000
vt 0.875000 0.500000
vt 0.875000 0.750000
s 0
usemtl purple
f 189/70/113 191/73/113 192/72/113 190/71/113
f 191/73/114 195/75/114 196/74/114 192/72/114
f 195/75/115 193/77/115 194/76/115 196/74/115
f 193/77/116 189/79/116 190/78/116 194/76/116
f 191/80/117 189/81/117 193/77/117 195/75/117
f 196/74/118 194/76/118 190/83/118 192/82/118
o Broom_Stick
v 1.060349 0.608302 0.028298
v 1.747941 2.819598 0.028298
v 1.096552 0.590448 0.057626
v 1.784143 2.801743 0.057626
v 1.082724 0.597268 0.105078
v 1.770315 2.808563 0.105079
v 1.037975 0.619337 0.105078
v 1.725566 2.830632 0.105079
v 1.024147 0.626157 0.057626
v 1.711738 2.837452 0.057626
vn -0.5658 0.1759 0.8055
vn -0.9092 0.2827 -0.3056
vn -0.0000 -0.0000 -1.0000
vn -0.4423 -0.8969 -0.0000
vn 0.9092 -0.2827 -0.3056
vn 0.5658 -0.1759 0.8055
vn 0.4423 0.8969 -0.0000
vt 1.000000 0.500000
vt 1.000000 1.000000
vt 0.800000 1.000000
vt 0.800000 0.500000
vt 0.600000 1.000000
vt 0.600000 0.500000
vt 0.400000 1.000000
vt 0.400000 0.500000
vt 0.978254 0.324164
vt 0.750000 0.490000
vt 0.521746 0.324164
vt 0.608932 0.055836
vt 0.891068 0.055836
vt 0.200000 1.000000
vt 0.200000 0.500000
vt 0.000000 1.000000
vt 0.000000 0.500000
vt 0.250000 0.490000
vt 0.478254 0.324164
vt 0.391068 0.055836
vt 0.108932 0.055836
vt 0.021746 0.324164
s 0
usemtl brown
f 197/84/119 199/87/119 200/86/119 198/85/119
f 199/87/120 201/89/120 202/88/120 200/86/120
f 201/89/121 203/91/121 204/90/121 202/88/121
f 200/92/122 202/96/122 204/95/122 206/94/122 198/93/122
f 203/91/123 205/98/123 206/97/123 204/90/123
f 205/98/124 197/100/124 198/99/124 206/97/124
f 197/101/125 205/105/125 203/104/125 201/103/125 199/102/125
o Arms
v 0.159070 2.316741 -0.068495
v 0.429848 2.261248 -0.041078
v 0.154955 2.321042 0.089911
v 0.433904 2.257008 0.098575
v 0.251525 2.230781 -0.067038
v 0.429528 2.067982 -0.045642
v 0.247223 2.235279 0.098575
v 0.433851 2.063463 0.103200
v 0.724158 2.001390 0.003112
v 0.843300 1.986228 0.117722
v 0.781446 1.849689 0.117722
v 0.776229 1.838705 -0.006886
v 0.429848 2.261248 -0.041078
v 0.433904 2.257008 0.098575
v 0.433851 2.063463 0.103200
v 0.429528 2.067982 -0.045642
v 1.314950 1.495012 0.073383
v 1.316075 1.493836 0.089114
v 1.325768 1.514529 0.089114
v 1.324643 1.515706 0.073383
v 1.156009 1.600377 0.097679
v 1.144860 1.661117 0.052344
v 1.153659 1.597912 0.049351
v 1.181319 1.655754 0.097679
v -0.159070 2.316741 -0.068495
v -0.429848 2.261248 -0.041078
v -0.154955 2.321042 0.089911
v -0.433904 2.257008 0.098575
v -0.251525 2.230781 -0.067038
v -0.429528 2.067982 -0.045642
v -0.247223 2.235279 0.098575
v -0.433851 2.063463 0.103200
v -0.724158 2.001389 0.003112
v -0.843300 1.986228 0.117722
v -0.781446 1.849689 0.117722
v -0.776229 1.838705 -0.006886
v -0.429848 2.261248 -0.041078
v -0.433904 2.257008 0.098575
v -0.433851 2.063463 0.103200
v -0.429528 2.067982 -0.045642
v -1.314950 1.495012 0.073383
v -1.316075 1.493836 0.089114
v -1.325767 1.514529 0.089114
v -1.324642 1.515706 0.073383
v -1.156009 1.600377 0.097679
v -1.144860 1.661117 0.052344
v -1.153659 1.597912 0.049351
v -1.181319 1.655754 0.097679
vn 0.2125 0.9772 -0.0002
vn -0.0053 0.0458 0.9989
vn -0.6761 -0.7368 -0.0000
vn 0.1346 0.0554 -0.9894
vn -0.6809 -0.7323 0.0022
vn -0.0317 0.0199 0.9993
vn -0.0000 -1.0000 -0.0000
vn -0.5396 -0.8410 0.0387
vn 0.5989 0.7666 -0.2317
vn 0.1774 0.0660 -0.9819
vn 0.0409 -0.0188 0.9990
vn 0.1549 0.0336 -0.9874
vn 0.6353 0.7049 -0.3155
vn -0.5470 -0.8358 0.0465
vn -0.5469 -0.8325 0.0887
vn 0.5881 0.6439 -0.4895
vn 0.2102 0.1125 -0.9712
vn 0.0410 -0.0186 0.9990
vn -0.2125 0.9772 -0.0002
vn 0.0053 0.0458 0.9989
vn 0.6761 -0.7368 -0.0000
vn -0.1346 0.0554 -0.9894
vn 0.6809 -0.7323 0.0022
vn 0.0317 0.0199 0.9993
vn 0.5396 -0.8410 0.0387
vn -0.5989 0.7666 -0.2317
vn -0.1774 0.0660 -0.9819
vn -0.0409 -0.0188 0.9990
vn -0.1549 0.0336 -0.9874
vn -0.6353 0.7049 -0.3155
vn 0.5470 -0.8358 0.0465
vn 0.5469 -0.8325 0.0887
vn -0.5881 0.6439 -0.4895
vn -0.2102 0.1125 -0.9712
vn -0.0410 -0.0186 0.9990
vt 0.375000 0.000000
vt 0.625000 0.000000
vt 0.625000 0.250000
vt 0.375000 0.250000
vt 0.625000 0.500000
vt 0.375000 0.500000
vt 0.625000 0.750000
vt 0.375000 0.750000
vt 0.625000 1.000000
vt 0.375000 1.000000
vt 0.125000 0.500000
vt 0.125000 0.750000
vt 0.625000 0.500000
vt 0.625000 0.250000
s 0
usemtl purple
f 227/118/136 224/110/136 225/108/136 230/119/136
f 228/114/137 226/114/137 223/112/137 229/112/137
f 230/119/138 225/108/138 226/107/138 228/107/138
f 229/112/139 223/112/139 224/110/139 227/118/139
f 251/118/153 254/119/153 249/108/153 248/110/153
f 252/114/154 253/112/154 247/112/154 250/114/154
f 254/119/155 252/107/155 250/107/155 249/108/155
f 253/112/156 251/118/156 248/110/156 247/112/156
usemtl blue
f 207/106/126 209/109/126 210/108/126 208/107/126
f 209/109/127 213/111/127 214/110/127 210/108/127
f 213/111/128 211/113/128 212/112/128 214/110/128
f 211/113/129 207/115/129 208/114/129 212/112/129
f 209/116/130 207/117/130 211/113/130 213/111/130
f 214/110/131 217/110/131 216/108/131 210/108/131
f 210/108/132 220/108/132 221/110/132 214/110/132
f 212/112/133 218/112/133 217/110/133 214/110/133
f 210/108/134 216/108/134 215/107/134 208/107/134
f 208/114/135 215/114/135 218/112/135 212/112/135
f 214/110/132 221/110/132 222/112/132 212/112/132
f 208/107/132 219/107/132 220/108/132 210/108/132
f 212/112/132 222/112/132 219/114/132 208/114/132
f 218/112/140 229/112/140 227/118/140 217/110/140
f 216/108/141 230/119/141 228/107/141 215/107/141
f 215/114/142 228/114/142 229/112/142 218/112/142
f 217/110/143 227/118/143 230/119/143 216/108/143
f 231/106/144 232/107/144 234/108/144 233/109/144
f 233/109/145 234/108/145 238/110/145 237/111/145
f 237/111/146 238/110/146 236/112/146 235/113/146
f 235/113/147 236/112/147 232/114/147 231/115/147
f 233/116/148 237/111/148 235/113/148 231/117/148
f 238/110/149 234/108/149 240/108/149 241/110/149
f 234/108/132 238/110/132 245/110/132 244/108/132
f 236/112/150 238/110/150 241/110/150 242/112/150
f 234/108/151 232/107/151 239/107/151 240/108/151
f 232/114/152 236/112/152 242/112/152 239/114/152
f 238/110/132 236/112/132 246/112/132 245/110/132
f 232/107/132 234/108/132 244/108/132 243/107/132
f 236/112/132 232/114/132 243/114/132 246/112/132
f 242/112/157 241/110/157 251/118/157 253/112/157
f 240/108/158 239/107/158 252/107/158 254/119/158
f 239/114/159 242/112/159 253/112/159 252/114/159
f 241/110/160 240/108/160 254/119/160 251/118/160
