# Blender 4.2.3 LTS
# www.blender.org
mtllib octahedron.mtl
o Octahedron
v 0.000000 0.937637 0.000000
v 0.000000 0.000000 -0.937637
v -0.937637 0.000000 -0.000000
v -0.000000 0.000000 0.937637
v 0.937637 0.000000 0.000000
v -0.000000 -0.937637 -0.000000
vn -0.5774 0.5774 -0.5774
vn -0.5774 0.5774 0.5774
vn 0.5774 0.5774 0.5774
vn 0.5774 0.5774 -0.5774
vn -0.5774 -0.5774 -0.5774
vn -0.5774 -0.5774 0.5774
vn 0.5774 -0.5774 0.5774
vn 0.5774 -0.5774 -0.5774
s 0
f 1//1 2//1 3//1
f 1//2 3//2 4//2
f 1//3 4//3 5//3
f 1//4 5//4 2//4
f 2//5 6//5 3//5
f 3//6 6//6 4//6
f 4//7 6//7 5//7
f 5//8 6//8 2//8
